<?xml version="1.0" encoding="UTF-8"?><svg id="Capa_2" xmlns="http://www.w3.org/2000/svg" xmlns:xlink="http://www.w3.org/1999/xlink" viewBox="0 0 28 30.73"><defs><style>.Estilo_grÃ_fico_41{fill:url(#Degradado_sin_nombre_245);}.cls-1{fill:url(#Degradado_sin_nombre_245-2);}.Estilo_grÃ_fico_39{fill:url(#Degradado_sin_nombre_280);}.cls-2{fill:url(#Degradado_sin_nombre_280-2);}.cls-3{fill:url(#Degradado_sin_nombre_661-2);}.Estilo_grÃ_fico_40{fill:url(#Degradado_sin_nombre_661);}.cls-4{fill:url(#Degradado_sin_nombre_264);}.cls-4,.cls-5{opacity:.5;}.cls-6{fill:url(#Degradado_sin_nombre_661-3);}.cls-5{fill:url(#Degradado_sin_nombre_264-2);}</style><linearGradient id="Degradado_sin_nombre_280" x1="-4.51" y1=".22" x2="20.61" y2="32.61" gradientUnits="userSpaceOnUse"><stop offset="0" stop-color="#fff"/><stop offset="1" stop-color="#fff" stop-opacity="0"/></linearGradient><linearGradient id="Degradado_sin_nombre_661" x1="18.28" y1="7.15" x2="-10.88" y2="-15.27" gradientUnits="userSpaceOnUse"><stop offset="0" stop-color="#d4b3f7"/><stop offset=".64" stop-color="#558aff"/><stop offset="1" stop-color="#1c0349"/></linearGradient><linearGradient id="Degradado_sin_nombre_245" x1="1.07" y1="33.06" x2="18.95" y2="4.04" gradientUnits="userSpaceOnUse"><stop offset="0" stop-color="#d4b3f7"/><stop offset=".66" stop-color="#558aff"/><stop offset=".89" stop-color="#3400c4"/><stop offset=".99" stop-color="#1c0349"/></linearGradient><linearGradient id="Degradado_sin_nombre_661-2" x1="-1.89" y1="-1.71" x2="48.24" y2="52.15" xlink:href="#Degradado_sin_nombre_661"/><linearGradient id="Degradado_sin_nombre_245-2" x1="25.22" y1="1.05" x2="8.87" y2="26.74" xlink:href="#Degradado_sin_nombre_245"/><linearGradient id="Degradado_sin_nombre_264" x1="8.17" y1="21.62" x2="22.04" y2="25.48" gradientUnits="userSpaceOnUse"><stop offset="0" stop-color="#020214"/><stop offset="1" stop-color="#020214" stop-opacity="0"/></linearGradient><linearGradient id="Degradado_sin_nombre_661-3" x1="8001.66" y1="-3244.75" x2="7972.51" y2="-3267.18" gradientTransform="translate(8021.7 -3236.24) rotate(-180)" xlink:href="#Degradado_sin_nombre_661"/><linearGradient id="Degradado_sin_nombre_264-2" x1="8001.87" y1="-3245.35" x2="8015.74" y2="-3241.48" gradientTransform="translate(8021.7 -3236.24) rotate(-180)" xlink:href="#Degradado_sin_nombre_264"/><linearGradient id="Degradado_sin_nombre_280-2" x1="14" y1="5.96" x2="14" y2="14.55" xlink:href="#Degradado_sin_nombre_280"/></defs><g id="Capa_1-2"><g><path class="Estilo_grÃ_fico_41" d="m28,10.17v5.2h0l-2.1-1.2s0,0,0,0l-.16-.09s0,0,0,0l-8.85-5.07c-.12-.07-.24-.13-.37-.19-1.67-.81-3.63-.76-5.27.15l-.49.28h0s-4.98,2.85-4.98,2.85l-3.4,1.94s0,0,0,0l-.32.19c-.6.38-1.09.89-1.44,1.49,0,0,0,0,0,0-.37.65-.58,1.39-.58,2.17v-7.66c0-.11,0-.22.01-.32,0-.05,0-.1.01-.15,0-.05,0-.09.01-.14h0c.01-.11.03-.21.05-.32,0,0,0,0,0-.01.02-.1.04-.2.07-.3,0,0,0-.02,0-.02.02-.09.05-.19.08-.28,0-.01,0-.03.01-.04.03-.09.06-.18.1-.26,0-.02.01-.03.02-.05.03-.08.07-.16.11-.25,0-.02.02-.04.02-.06.04-.08.08-.15.12-.23.01-.02.02-.04.03-.06.04-.07.08-.14.13-.21.01-.02.03-.05.04-.07.04-.07.09-.13.13-.19.02-.02.03-.04.04-.06,0,0,0-.01.01-.02.02-.03.04-.06.07-.09.04-.05.08-.11.13-.16.02-.02.03-.04.05-.06,0,0,0-.01.01-.02.03-.04.06-.07.1-.11.03-.03.07-.07.1-.1.07-.07.14-.14.21-.2,0,0,0,0,.01-.01,0,0,.02-.02.03-.02,0,0,.02-.02.03-.02.02-.02.05-.04.07-.06.04-.03.08-.06.12-.09.01,0,.02-.02.04-.03,0,0,0,0,.01-.01.03-.03.07-.05.1-.08,0,0,0,0,0,0,.04-.03.09-.06.13-.09.04-.03.09-.06.13-.08.05-.03.1-.06.16-.09l2.87-1.66L11.45.68c.67-.39,1.42-.61,2.17-.66.13-.01.25-.01.38-.01s.24,0,.37.01c0,0,0,0,.01,0,.75.05,1.49.27,2.17.66l8.92,5.15c.05.03.1.06.16.09.04.03.09.05.13.08.05.03.09.06.13.09,0,0,0,0,0,0,.04.02.07.05.1.08.06.04.11.09.17.13.02.02.05.04.07.06.02.02.05.04.07.06.07.06.14.13.21.2.03.03.07.07.1.1.03.04.07.07.1.11.1.11.19.22.28.34.52.7.86,1.53.97,2.42h0c.02.15.03.3.04.46,0,.02,0,.03,0,.05,0,.02,0,.03,0,.05Z"/><path class="cls-3" d="m9.66,15.36h0c0,1.55.83,2.98,2.17,3.76h0c1.34.78,3,.78,4.34,0h0c1.34-.78,2.17-2.21,2.17-3.76h0c0-1.55-.83-2.98-2.17-3.76h0c-1.34-.78-3-.78-4.34,0h0c-1.34.78-2.17,2.21-2.17,3.76Z"/><path class="Estilo_grÃ_fico_40" d="m28,10.22v7.66c0-.78-.21-1.52-.58-2.17,0,0,0,0,0,0-.35-.6-.84-1.11-1.44-1.49-.02-.01-.05-.03-.07-.05,0,0,0,0,0,0-.02-.01-.05-.03-.07-.04-.03-.02-.06-.03-.09-.05,0,0,0,0,0,0-.03-.01-.05-.03-.08-.04l-3.4-1.94-4.98-2.84-.5-.29-.26-.15-7.68-4.39c-1.05-.57-2.31-.67-3.41-.24L11.45.68c.67-.39,1.42-.61,2.17-.66,0,0,0,0,.01,0,.12,0,.24-.01.37-.01s.25,0,.38.01c.75.05,1.49.27,2.17.66l8.92,5.15c.05.03.1.06.16.09.04.03.09.05.13.08.05.03.09.06.13.09,0,0,0,0,0,0,.04.02.07.05.1.08.06.04.11.09.17.13.02.02.05.04.07.06.02.02.05.04.07.06.07.06.14.13.21.2.03.03.07.07.1.1.03.04.07.07.1.11.1.11.19.22.28.34.52.7.86,1.53.97,2.42h0c.02.15.03.3.04.46,0,.02,0,.03,0,.05,0,.03,0,.07,0,.1Z"/><g><path class="cls-1" d="m28,12.85v7.66c0,.11,0,.22-.01.32,0,.05,0,.1-.01.15,0,.05,0,.09-.01.14h0c-.01.11-.03.21-.05.32,0,0,0,0,0,.01-.02.1-.04.2-.07.3,0,0,0,.02,0,.02-.02.09-.05.19-.08.28,0,.01,0,.02-.01.04-.03.09-.06.18-.1.26,0,.02-.01.03-.02.05-.03.08-.07.16-.11.25,0,.02-.02.04-.02.06-.04.08-.08.15-.12.23-.01.02-.02.04-.03.06-.04.07-.08.14-.13.21-.01.02-.03.05-.04.07-.04.06-.09.13-.13.19-.01.02-.03.04-.04.06,0,0-.01.01-.02.02-.02.03-.04.06-.07.09-.04.05-.08.11-.13.16-.02.02-.03.04-.05.06,0,0-.01.01-.01.02-.03.04-.06.07-.1.11-.03.04-.07.07-.1.1-.07.07-.14.14-.21.2,0,0-.01,0-.02.01,0,0-.02.01-.03.02,0,0-.02.02-.03.02-.02.02-.05.04-.07.06-.04.03-.08.06-.12.09-.01,0-.02.02-.04.03,0,0-.01,0-.01.01-.03.03-.07.05-.1.08,0,0,0,0,0,0-.04.03-.09.06-.13.09-.04.03-.09.06-.13.08-.05.03-.1.06-.16.09l-2.87,1.66-6.05,3.49c-.67.39-1.42.61-2.17.66-.13,0-.25.01-.38.01s-.24,0-.37-.02c0,0,0,0-.01,0-.75-.05-1.49-.27-2.17-.66l-8.92-5.15c-.05-.03-.1-.06-.16-.09-.04-.03-.09-.05-.13-.08-.05-.03-.09-.06-.13-.09,0,0,0,0,0,0-.04-.02-.07-.05-.1-.08-.06-.04-.11-.09-.17-.13-.02-.02-.05-.04-.07-.06-.02-.02-.05-.04-.07-.06-.07-.06-.14-.13-.21-.2-.03-.03-.07-.07-.1-.1-.03-.04-.07-.07-.1-.11-.1-.11-.19-.22-.28-.34-.52-.7-.86-1.53-.97-2.42h0c-.02-.2-.04-.41-.04-.61v-5.15h0l2.1,1.2s0,0,0,0l.16.09s0,0,0,0l8.86,5.07c.12.07.25.14.37.2,1.67.81,3.63.76,5.26-.15l.49-.28h.01s4.98-2.85,4.98-2.85l3.4-1.94h0s.32-.19.32-.19c.6-.38,1.09-.89,1.44-1.49,0,0,0,0,0,0,.37-.65.58-1.39.58-2.17Z"/><path class="Estilo_grÃ_fico_40" d="m22.59,26.56l-6.05,3.49c-.67.39-1.42.61-2.17.66,0,0,0,0-.01,0-.12.01-.24.02-.37.02s-.25,0-.38-.01c-.75-.05-1.49-.27-2.17-.66l-8.92-5.15c-.05-.03-.1-.06-.16-.09-.04-.03-.09-.05-.13-.08-.05-.03-.09-.06-.13-.09,0,0,0,0,0,0-.04-.02-.07-.05-.1-.08-.06-.04-.11-.09-.17-.13-.02-.02-.05-.04-.07-.06-.02-.02-.05-.04-.07-.06-.07-.06-.14-.13-.21-.2-.03-.03-.07-.07-.1-.1-.03-.04-.07-.07-.1-.11-.1-.11-.19-.22-.28-.34-.52-.7-.86-1.53-.97-2.42h0c-.02-.2-.04-.41-.04-.61v-7.66c0,.78.21,1.52.58,2.17,0,0,0,0,0,0,.35.6.84,1.11,1.44,1.49.02.02.05.03.07.04,0,0,0,0,0,0,.02.01.05.03.07.04.03.02.06.03.09.05,0,0,0,0,0,0,.03.02.06.03.08.04l3.4,1.94,4.98,2.84.5.29.27.15,7.68,4.39c1.05.57,2.31.67,3.41.24Z"/><path class="Estilo_grÃ_fico_40" d="m22.59,26.56l-6.05,3.49c-.67.39-1.42.61-2.17.66,0,0,0,0-.01,0-.12.01-.24.02-.37.02s-.25,0-.38-.01c-.75-.05-1.49-.27-2.17-.66l-8.92-5.15c-.05-.03-.1-.06-.16-.09-.04-.03-.09-.05-.13-.08-.05-.03-.09-.06-.13-.09,0,0,0,0,0,0-.04-.02-.07-.05-.1-.08-.06-.04-.11-.09-.17-.13-.02-.02-.05-.04-.07-.06-.02-.02-.05-.04-.07-.06-.07-.06-.14-.13-.21-.2-.03-.03-.07-.07-.1-.1-.03-.04-.07-.07-.1-.11-.1-.11-.19-.22-.28-.34-.52-.7-.86-1.53-.97-2.42h0c-.02-.2-.04-.41-.04-.61v-7.66c0,.78.21,1.52.58,2.17,0,0,0,0,0,0,.35.6.84,1.11,1.44,1.49.02.02.05.03.07.04,0,0,0,0,0,0,.02.01.05.03.07.04.03.02.06.03.09.05,0,0,0,0,0,0,.03.02.06.03.08.04l3.4,1.94,4.98,2.84.5.29.27.15,7.68,4.39c1.05.57,2.31.67,3.41.24Z"/><path class="Estilo_grÃ_fico_39" d="m22.59,26.56l-.92.53c-.84.11-1.72-.06-2.49-.47l-7.68-4.39-.27-.15-.5-.29-4.98-2.84-3.4-1.94s-.06-.03-.08-.04c0,0,0,0,0,0-.03-.02-.06-.03-.09-.05-.02-.01-.05-.03-.07-.04,0,0,0,0,0,0-.02-.01-.05-.03-.07-.04-.6-.38-1.09-.89-1.44-1.49,0,0,0,0,0,0-.37-.65-.58-1.39-.58-2.17v-.3c0,.78.21,1.52.58,2.17,0,0,0,0,0,0,.35.6.84,1.11,1.44,1.49.02.02.05.03.07.04,0,0,0,0,0,0,.02.01.05.03.07.04.03.02.06.03.09.05,0,0,0,0,0,0,.03.02.06.03.08.04l3.4,1.94,4.98,2.84.5.29.27.15,7.68,4.39c1.05.57,2.31.67,3.41.24Z"/><path class="cls-4" d="m25.7,24.76l-3.11,1.8c-1.1.43-2.36.33-3.41-.24l-7.68-4.39s.02,0,.03.01c2.17,1.2,3.06,1.24,6.81,2.65,3.83,1.43,5.45.71,7.36.16Z"/></g><path class="cls-6" d="m5.41,4.17L11.45.68c.67-.39,1.42-.61,2.17-.66,0,0,0,0,.01,0,.12-.01.24-.02.37-.02s.25,0,.38.01c.75.05,1.49.27,2.17.66l8.92,5.15c.05.03.1.06.16.09.04.03.09.05.13.08.05.03.09.06.13.09,0,0,0,0,0,0,.04.02.07.05.1.08.06.04.11.09.17.13.02.02.05.04.07.06.02.02.05.04.07.06.07.06.14.13.21.2.03.03.07.07.1.1.03.04.07.07.1.11.1.11.19.22.28.34.52.7.86,1.53.97,2.42h0c.02.2.04.41.04.61v7.66c0-.78-.21-1.52-.58-2.17,0,0,0,0,0,0-.35-.6-.84-1.11-1.44-1.49-.02-.02-.05-.03-.07-.04,0,0,0,0,0,0-.02-.01-.05-.03-.07-.04-.03-.02-.06-.03-.09-.05,0,0,0,0,0,0-.03-.02-.06-.03-.08-.04l-3.4-1.94-4.98-2.84-.5-.29-.27-.15-7.68-4.39c-1.05-.57-2.31-.67-3.41-.24Z"/><path class="Estilo_grÃ_fico_39" d="m5.41,4.17l.92-.53c.84-.11,1.72.06,2.49.47l7.68,4.39.27.15.5.29,4.98,2.84,3.4,1.94s.06.03.08.04c0,0,0,0,0,0,.03.02.06.03.09.05.02.01.05.03.07.04,0,0,0,0,0,0,.02.01.05.03.07.04.6.38,1.09.89,1.44,1.49,0,0,0,0,0,0,.37.65.58,1.39.58,2.17v.3c0-.78-.21-1.52-.58-2.17,0,0,0,0,0,0-.35-.6-.84-1.11-1.44-1.49-.02-.02-.05-.03-.07-.04,0,0,0,0,0,0-.02-.01-.05-.03-.07-.04-.03-.02-.06-.03-.09-.05,0,0,0,0,0,0-.03-.02-.06-.03-.08-.04l-3.4-1.94-4.98-2.84-.5-.29-.27-.15-7.68-4.39c-1.05-.57-2.31-.67-3.41-.24Z"/><path class="cls-5" d="m2.3,5.97l3.11-1.8c1.1-.43,2.36-.33,3.41.24l7.68,4.39s-.02,0-.03-.01c-2.17-1.2-3.06-1.24-6.81-2.65-3.83-1.43-5.45-.71-7.36-.16Z"/><path class="cls-2" d="m18.34,15.36s0,.1,0,.15c-.02-.72-.23-1.41-.58-2.02-.37-.65-.92-1.2-1.59-1.59-.67-.39-1.42-.58-2.17-.58s-1.5.19-2.17.58c-.67.39-1.21.94-1.59,1.59-.35.61-.55,1.3-.58,2.02,0-.05,0-.1,0-.15,0-.78.21-1.52.58-2.17.37-.65.92-1.2,1.59-1.59.67-.39,1.42-.58,2.17-.58s1.5.19,2.17.58c.67.39,1.21.94,1.59,1.59.37.65.58,1.39.58,2.17Z"/></g></g></svg>